<svg xmlns="http://www.w3.org/2000/svg" viewBox="0 0 100 100">
  <defs>
    <linearGradient id="amanotes" x1="0%" y1="100%" x2="100%" y2="0%">
      <stop offset="0%" stop-color="#9B30FF"/>
      <stop offset="60%" stop-color="#E91E8C"/>
      <stop offset="100%" stop-color="#FF69B4"/>
    </linearGradient>
  </defs>
  <!-- Heart shape with music note hole - Amanotes style -->
  <path fill="url(#amanotes)" d="M50 88C25 70 10 52 10 35c0-14 11-25 25-25 8 0 15 4 15 4s7-4 15-4c14 0 25 11 25 25 0 17-15 35-40 53z"/>
  <!-- Music note hole -->
  <ellipse cx="50" cy="45" rx="12" ry="10" fill="white"/>
  <!-- Swoosh/stem -->
  <path fill="url(#amanotes)" d="M58 45c0-20 15-35 30-35-10 10-18 25-18 40 0 8-5 12-12 12z" opacity="0.95"/>
</svg>
